<svg width="16" height="16" viewBox="0 0 16 16" fill="none" xmlns="http://www.w3.org/2000/svg">
<path d="M5.41612 15.9998C3.63754 10.1391 7.39564 7.9992 7.39564 7.9992C7.1327 11.1265 8.90988 13.5629 8.90988 13.5629C9.56351 13.3657 10.8111 12.444 10.8111 12.444C10.8111 13.5629 10.1528 15.9984 10.1528 15.9984C10.1528 15.9984 12.4573 14.2165 13.1827 11.2571C13.9072 8.29757 11.8027 5.32643 11.8027 5.32643C11.9295 7.4211 11.2209 9.48127 9.83251 11.0552C9.90197 10.975 9.96025 10.886 10.005 10.7895C10.2544 10.2906 10.6549 8.99409 10.4204 5.99171C10.0903 1.77719 6.27161 0 6.27161 0C6.60076 2.56787 5.61379 3.15949 3.30187 8.0337C0.989942 12.907 5.41612 15.9998 5.41612 15.9998Z" fill="white"/>
</svg>
