<svg width="19" height="19" viewBox="0 0 19 19" fill="none" xmlns="http://www.w3.org/2000/svg">
<path d="M9.40274 0.599854C14.2702 0.599854 18.2047 4.54315 18.2047 9.40185C18.2047 14.2694 14.2702 18.2039 9.40274 18.2039C4.54403 18.2039 0.600739 14.2694 0.600739 9.40185C0.600739 4.54315 4.54403 0.599854 9.40274 0.599854ZM9.09467 4.93924C8.73379 4.93924 8.43452 5.22971 8.43452 5.59939V10.0444C8.43452 10.2733 8.55775 10.4845 8.76019 10.6077L12.2106 12.6674C12.3162 12.729 12.4306 12.7642 12.5539 12.7642C12.7739 12.7642 12.994 12.6498 13.1172 12.4385C13.302 12.1305 13.2052 11.7256 12.8883 11.5319L9.75482 9.66591V5.59939C9.75482 5.22971 9.45555 4.93924 9.09467 4.93924Z" fill="#E4585D"/>
</svg>
