<svg width="24" height="24" viewBox="0 0 24 24" fill="none" xmlns="http://www.w3.org/2000/svg">
<path d="M11.905 4.5C14.3271 4.5 16.0181 6.16904 16.0181 8.56091V15.4391C16.0181 17.831 14.3271 19.5 11.905 19.5H6.11298C3.69096 19.5 1.99994 17.831 1.99994 15.4391V8.56091C1.99994 6.16904 3.69096 4.5 6.11298 4.5H11.905ZM19.9579 6.87898C20.3969 6.65563 20.9119 6.67898 21.3309 6.94294C21.7499 7.20589 21.9999 7.66274 21.9999 8.16223V15.8384C21.9999 16.3389 21.7499 16.7947 21.3309 17.0577C21.1019 17.2008 20.8459 17.2739 20.5879 17.2739C20.3729 17.2739 20.1579 17.2231 19.9569 17.1206L18.4759 16.3734C17.9279 16.0952 17.5879 15.5369 17.5879 14.9165V9.08305C17.5879 8.46173 17.9279 7.90335 18.4759 7.62721L19.9579 6.87898Z" fill="#E4585D"/>
</svg>
