<svg width="12" height="70" viewBox="0 0 12 70" fill="none" xmlns="http://www.w3.org/2000/svg">
<mask id="path-1-outside-1_4_440" maskUnits="userSpaceOnUse" x="0" y="0" width="12" height="70" fill="black">
<rect fill="white" width="12" height="70"/>
<path d="M9.6 54.5H2.4V1.29999H9.6V54.5ZM2.5 67.5C1.5 66.5 1 65.3333 1 64C1 62.6667 1.5 61.5 2.5 60.5C3.5 59.5 4.66667 59 6 59C7.33333 59 8.5 59.5 9.5 60.5C10.5 61.5 11 62.6667 11 64C11 65.3333 10.5 66.5 9.5 67.5C8.5 68.5 7.33333 69 6 69C4.66667 69 3.5 68.5 2.5 67.5Z"/>
</mask>
<path d="M9.6 54.5V55.5H10.6V54.5H9.6ZM2.4 54.5H1.4V55.5H2.4V54.5ZM2.4 1.3V0.299995H1.4V1.3H2.4ZM9.6 1.3H10.6V0.299995H9.6V1.3ZM9.5 60.5L8.79289 61.2071L9.5 60.5ZM9.6 53.5H2.4V55.5H9.6V53.5ZM3.4 54.5V1.3H1.4V54.5H3.4ZM2.4 2.3H9.6V0.299995H2.4V2.3ZM8.6 1.3V54.5H10.6V1.3H8.6ZM3.20711 66.7929C2.38202 65.9678 2 65.0508 2 64H0C0 65.6159 0.617983 67.0322 1.79289 68.2071L3.20711 66.7929ZM2 64C2 62.9492 2.38202 62.0322 3.20711 61.2071L1.79289 59.7929C0.617983 60.9678 0 62.3841 0 64H2ZM3.20711 61.2071C4.0322 60.382 4.94922 60 6 60V58C4.38411 58 2.9678 58.618 1.79289 59.7929L3.20711 61.2071ZM6 60C7.05078 60 7.96781 60.382 8.79289 61.2071L10.2071 59.7929C9.0322 58.618 7.61589 58 6 58V60ZM8.79289 61.2071C9.61798 62.0322 10 62.9492 10 64H12C12 62.3841 11.382 60.9678 10.2071 59.7929L8.79289 61.2071ZM10 64C10 65.0508 9.61798 65.9678 8.79289 66.7929L10.2071 68.2071C11.382 67.0322 12 65.6159 12 64H10ZM8.79289 66.7929C7.96781 67.618 7.05078 68 6 68V70C7.61589 70 9.0322 69.382 10.2071 68.2071L8.79289 66.7929ZM6 68C4.94922 68 4.0322 67.618 3.20711 66.7929L1.79289 68.2071C2.9678 69.382 4.38411 70 6 70V68Z" fill="#E4585D" mask="url(#path-1-outside-1_4_440)"/>
</svg>
