<svg width="24" height="24" viewBox="0 0 24 24" fill="none" xmlns="http://www.w3.org/2000/svg">
<g clip-path="url(#clip0_4_471)">
<path d="M13.0644 10.0389L12 8.15662L10.9356 10.0389C10.8353 10.2162 10.6631 10.3412 10.4636 10.3819L8.34467 10.8124L9.80585 12.4059C9.94354 12.5561 10.0093 12.7584 9.98621 12.9609L9.74084 15.1093L11.7083 14.2123C11.801 14.17 11.9006 14.1489 12 14.1489C12.0994 14.1489 12.199 14.17 12.2917 14.2123L14.2592 15.1093L14.0138 12.9609C13.9907 12.7586 14.0565 12.5561 14.1942 12.4059L15.6553 10.8124L13.5364 10.3819C13.3369 10.3412 13.1647 10.2162 13.0644 10.0389Z" fill="#FFB832"/>
<path d="M12 4.4187C7.8197 4.4187 4.4187 7.8197 4.4187 12C4.4187 16.1803 7.8197 19.5813 12 19.5813C16.1803 19.5813 19.5813 16.1803 19.5813 12C19.5813 7.8197 16.1803 4.4187 12 4.4187ZM15.4473 13.1201L15.7972 16.1852C15.826 16.437 15.717 16.6848 15.512 16.8338C15.1666 17.0847 14.8143 16.908 14.807 16.9047L12 15.6248L9.19299 16.9047C8.96228 17.0098 8.69293 16.9828 8.48785 16.8338C8.28296 16.6848 8.17401 16.437 8.20258 16.1852L8.55267 13.1201L6.46783 10.8463C6.29645 10.6593 6.23895 10.3949 6.31732 10.1537C6.39569 9.9126 6.59766 9.73242 6.84595 9.68188L9.86938 9.06757L11.3879 6.38196C11.5128 6.16132 11.7466 6.0249 12 6.0249C12.2534 6.0249 12.4872 6.16132 12.6119 6.38196L14.1306 9.06757L17.1539 9.68188C17.4023 9.73242 17.6043 9.9126 17.6827 10.1537C17.7609 10.3949 17.7034 10.6593 17.5322 10.8463L15.4473 13.1201Z" fill="#FFB832"/>
<path d="M12 0C5.38312 0 0 5.38312 0 12C0 18.6169 5.38312 24 12 24C18.6169 24 24 18.6169 24 12C24 5.38312 18.6169 0 12 0ZM12 20.9875C7.04425 20.9875 3.01245 16.9557 3.01245 12C3.01245 7.04425 7.04425 3.01245 12 3.01245C16.9557 3.01245 20.9875 7.04425 20.9875 12C20.9875 16.9557 16.9557 20.9875 12 20.9875Z" fill="#FFB832"/>
</g>
<defs>
<clipPath id="clip0_4_471">
<rect width="24" height="24" fill="white"/>
</clipPath>
</defs>
</svg>
