<svg width="25" height="24" viewBox="0 0 25 24" fill="none" xmlns="http://www.w3.org/2000/svg">
<path d="M17.9244 3.70199L19.3994 4.87371C20.0043 5.3467 20.4075 5.97019 20.5454 6.62592C20.7046 7.34723 20.5348 8.05563 20.0573 8.66837L11.2709 20.0308C10.8677 20.5468 10.2734 20.8371 9.63675 20.8478L6.13493 20.8908C5.94392 20.8908 5.78474 20.7618 5.7423 20.5791L4.94643 17.1284C4.80848 16.4942 4.94643 15.8384 5.34967 15.3332L11.5787 7.2709C11.6848 7.14191 11.8758 7.12148 12.0031 7.21715L14.6242 9.3026C14.794 9.44235 15.0274 9.5176 15.2715 9.48535C15.7915 9.42085 16.1416 8.94786 16.0886 8.44262C16.0568 8.18463 15.9294 7.96964 15.7596 7.80839C15.7066 7.76539 13.2128 5.76594 13.2128 5.76594C13.0537 5.63694 13.0218 5.40045 13.1492 5.24028L14.1361 3.95999C15.0487 2.78827 16.6404 2.68077 17.9244 3.70199Z" fill="#E4585D"/>
</svg>
