<svg width="109" height="159" viewBox="0 0 109 159" fill="none" xmlns="http://www.w3.org/2000/svg">
<g clip-path="url(#clip0_63_48)">
<path d="M97.2936 96.9724C97.3908 96.9547 97.5205 96.9385 97.6825 96.9223C98.4309 96.1101 99.0924 95.2493 99.6434 94.3591C101.221 91.8033 101.833 89.0532 101.62 86.3517C101.397 83.5015 100.258 80.7044 98.372 78.2501C97.9153 77.6541 96.4539 77.5541 95.4388 77.4834C95.0101 77.454 94.6565 77.429 94.4591 77.3716C94.2543 77.3128 94.16 77.2098 94.2101 77.0406C94.297 76.7433 94.9453 76.7286 95.7084 76.7109C96.4745 76.6933 97.3702 76.6742 97.7444 76.4358C98.976 75.653 96.3389 70.1396 94.5048 66.308C93.5958 64.4084 92.8798 62.9105 92.9092 62.5029C92.9859 61.4494 92.7546 59.9692 92.4128 58.5507C91.9752 56.735 91.3579 55.0281 90.969 54.4455C90.9057 54.3498 90.9101 54.291 90.8983 54.2983C90.8158 54.3528 90.751 54.753 90.6832 55.162C90.6228 55.527 90.5624 55.8992 90.4548 56.1273C90.3429 56.3642 90.1867 56.4745 89.9598 56.3686C89.5252 56.1641 89.5473 55.4784 89.5783 54.5323C89.6018 53.8128 89.6298 52.9299 89.4707 52.022C88.4763 46.3085 83.3715 42.8198 80.2394 41.3734C79.5735 41.0659 78.999 40.8525 78.5732 40.7289C78.3139 40.6539 78.1253 40.6097 78.0207 40.5965C78.1592 41.035 78.3979 41.8796 78.4877 42.371C78.5157 42.5284 78.5305 42.6565 78.5231 42.7359C78.4936 43.0464 78.3758 43.1185 78.1371 42.861C78.062 42.7801 77.9471 42.5844 77.7776 42.2327C77.4079 41.4661 76.605 40.6127 75.7416 39.8755C74.5969 38.8985 73.3638 38.1363 72.9042 38.0598C72.6994 38.0259 72.6287 38.4409 72.4917 39.2428C72.2943 40.4008 71.9775 42.2577 70.8019 44.6252C70.712 44.8077 70.6059 44.9813 70.4866 45.1461C69.1298 47.0369 65.8916 48.0904 62.842 48.5951C59.7968 49.0998 56.9137 49.0512 56.2876 48.7408C56.2566 48.7246 56.2286 48.7099 56.2065 48.6937C55.9796 48.5318 55.9973 48.3111 56.1903 48.0419C56.4423 47.6902 57.0566 47.2134 57.78 46.6499C57.9376 46.5278 58.0996 46.4012 58.2396 46.2909C58.8554 45.8068 59.458 45.3756 60.0252 44.971C62.7006 43.0596 64.5509 41.7383 63.7289 37.402C63.6066 36.7561 63.5801 36.1322 63.6081 35.5804C63.1823 36.1087 62.6608 36.6972 62.1157 37.3064C61.8903 37.7066 61.6634 38.0892 61.4454 38.4438C59.1147 42.2136 56.5572 43.504 53.9643 43.1729C51.392 42.8448 48.8035 40.9114 46.3771 38.2216C46.1694 37.9906 45.9852 37.7787 45.8261 37.583C45.779 37.7861 45.7274 37.998 45.6758 38.2157C45.3841 39.4282 45.0497 40.8113 45.1484 41.5161C45.2088 41.9458 45.4755 42.5314 45.9617 43.1935C46.3933 43.7806 46.9944 44.4222 47.7752 45.0622C48.3321 45.5198 49.0304 45.9421 49.7685 46.3894C50.4536 46.8044 51.1725 47.2399 51.8487 47.7432C52.1655 47.9786 52.4498 48.1802 52.7032 48.3494L52.8225 48.3082C53.4501 48.0919 53.7698 47.9815 54.1926 48.2287C54.477 48.395 54.7303 48.7246 54.7996 48.9865C54.8394 49.1395 54.8261 49.2808 54.7362 49.3882C54.6493 49.4912 54.5064 49.5456 54.2943 49.5206C53.9893 49.4853 53.4693 49.2675 52.6531 48.7364C51.9783 48.963 50.9662 49.2558 49.275 49.4044C45.8261 49.7104 42.8458 46.204 38.7457 41.3852C38.4393 41.0247 38.127 40.6568 37.8427 40.3257C37.4405 39.8549 37.0692 39.387 36.7274 38.9264C35.484 40.0241 33.448 40.9614 31.247 41.9752C27.3915 43.7512 23.019 45.7656 21.6783 49.2131C21.5708 49.4897 21.478 49.7575 21.4013 50.0135C21.4706 50.1298 21.5236 50.2681 21.5634 50.4182C21.7166 51.0126 21.6503 51.8455 21.3999 52.2531C21.3071 52.4031 21.2142 52.49 21.1244 52.5194C20.9712 52.5709 20.8577 52.5076 20.7855 52.3457C20.7458 52.2575 20.7222 52.1294 20.7163 51.9661C20.7001 51.56 20.7885 50.8861 21.0183 50.0798C20.9682 50.0297 20.9108 50.0003 20.8474 49.9974C20.7119 49.9915 20.5292 50.0886 20.2949 50.3328C20.2021 50.43 20.0902 50.5359 19.9664 50.6566C19.4817 51.123 18.7952 51.7837 18.3326 52.6724C17.8066 53.6803 17.3676 54.8913 17.0524 56.0861C16.7179 57.3545 16.522 58.6022 16.5102 59.5704C16.5028 60.2428 16.4027 60.9859 16.2612 61.7378C16.2686 61.7378 16.2745 61.7378 16.2804 61.7393C16.354 61.7452 16.4159 61.7746 16.466 61.8276C16.7533 62.138 16.5647 64.2054 16.1964 65.7253C16.0947 66.1447 15.9813 66.5229 15.8635 66.8127C15.7323 67.1335 15.5865 67.3616 15.4274 67.4484C15.3169 67.5072 15.2064 67.5102 15.0944 67.4454C14.6112 67.1673 14.9412 65.8254 15.3537 64.1553C15.4922 63.5962 15.638 63.0003 15.7692 62.3985C15.7161 62.4441 15.6601 62.4941 15.6027 62.5486C15.255 62.8723 14.8396 63.3343 14.4226 63.8743C13.3339 65.2869 12.2452 67.2218 12.394 68.5681C12.5826 70.2779 11.5601 73.5474 10.8677 75.7648C10.5082 76.9155 10.2401 77.7748 10.2769 77.9013C10.3226 78.0558 10.688 78.2236 10.9929 78.3619C11.2787 78.4928 11.5248 78.6047 11.566 78.7724C11.6073 78.9387 11.5012 79.0667 11.1682 79.1476C10.9311 79.205 10.7027 79.2742 10.4817 79.3536C8.33816 80.1173 7.1198 81.7917 6.55997 83.7811C5.99425 85.7911 6.09885 88.1218 6.60122 90.1685C6.71613 90.6365 6.85314 91.0926 7.00783 91.5267C7.57797 93.1246 8.75067 94.6725 9.98819 95.8629C11.457 97.274 12.998 98.1745 13.7111 98.0391C14.4816 97.8935 15.5703 98.4394 16.6207 98.9691C17.5768 99.4502 18.502 99.9152 19.0132 99.7813C19.4626 99.4135 19.3904 95.6157 19.1399 91.6429C18.8865 87.6318 18.4357 83.4633 18.1499 82.4142C18.1234 82.3171 18.1028 82.2582 18.091 82.2435C17.817 81.9051 16.1036 82.1758 14.9 82.3656C14.3387 82.4539 13.8819 82.526 13.689 82.5127C13.521 82.501 13.4356 82.4304 13.4459 82.2891C13.4635 82.0448 14.5007 81.7564 15.6263 81.443L15.6307 81.4416C15.9636 81.3489 16.3364 81.2974 16.7002 81.2473C17.5091 81.1355 18.2796 81.0296 18.309 80.5057C18.3311 80.1217 18.1308 79.9142 17.8214 79.7965C17.4634 79.6611 16.9566 79.6302 16.4498 79.6023H16.4395C15.4171 79.5464 14.156 79.4757 14.1471 79.177C14.1383 78.8931 14.8027 78.8607 15.6336 78.8195C16.5544 78.7739 17.7109 78.718 18.1794 78.4766C18.5477 78.2868 18.2575 73.1678 17.9658 68.059C17.6991 63.3652 17.4324 58.6802 17.7448 57.6635C18.2029 56.1744 21.9788 56.3274 24.8487 56.4436C26.2999 56.5025 27.5123 56.5511 27.86 56.3863C27.863 56.3848 27.86 56.3863 27.8674 56.3818C28.0353 56.2965 28.0545 56.0214 27.9838 55.652C27.9013 55.2194 27.6921 54.6809 27.4372 54.1438C27.3709 54.004 27.3061 53.8716 27.2427 53.748C27.0586 53.389 26.8508 53.0255 26.6682 52.7077C26.3779 52.2015 26.154 51.8087 26.1466 51.61C26.1422 51.4497 26.2129 51.3599 26.3779 51.3555C26.5798 51.3496 26.8685 51.5836 27.1705 51.9691C27.4401 52.3134 27.7377 52.7901 28 53.3198C28.1488 53.6229 28.2872 53.9422 28.4198 54.2542C28.7439 55.009 29.0489 55.7168 29.4216 55.9537C29.9019 56.2582 41.592 56.17 54.5035 56.0714C70.4984 55.9492 88.3599 55.8139 89.3646 56.4687C90.6184 57.2853 90.0836 66.904 89.733 73.2119C89.5665 76.2136 89.4427 78.4457 89.484 78.4693C89.5459 78.5046 89.7609 78.5841 90.0821 78.7047C92.2684 79.5243 99.197 82.1228 99.7731 86.359C99.801 86.5665 99.751 86.6813 99.6007 86.7004C99.4062 86.7269 99.0644 86.259 98.3425 85.2673C98.0715 84.895 97.7415 84.4418 97.3128 83.8635C96.6675 82.9924 95.4889 82.1596 94.2411 81.4622C92.2404 80.3453 90.0865 79.5861 89.6446 79.5743C89.6357 79.5743 89.6269 79.5758 89.618 79.5802C89.5326 79.6155 89.4619 79.773 89.4074 80.0025C89.3426 80.2733 89.3101 80.6264 89.3013 81.0001C89.2807 81.883 89.3897 82.8674 89.5208 83.1881C89.5886 83.3544 90.141 84.0975 90.9071 85.0583C91.5981 85.9264 92.4629 86.9667 93.3011 87.9202C94.1144 88.8443 94.8392 89.6815 95.3342 90.3054C95.9279 91.0543 96.1666 91.5443 95.8263 91.6194C95.2208 91.7547 93.0713 89.1577 91.3182 87.0418C90.225 85.7219 89.2924 84.5963 89.126 84.5065C89.1186 84.5565 89.0965 84.8979 89.0464 85.4409C88.9831 86.1162 88.9345 87.058 88.9035 88.135C88.8137 91.2559 88.8682 95.501 89.098 97.6669C89.2276 98.8852 89.8965 99.2133 90.832 99.1133C91.7439 99.0176 92.9107 98.538 94.0952 98.0524C95.1942 97.608 96.3168 97.1475 97.2936 96.9724ZM11.1786 78.8401C11.211 78.8636 11.2286 78.8901 11.2213 78.8622C11.2198 78.8607 11.2051 78.8533 11.1786 78.8401ZM16.2214 62.0954C16.2111 62.0968 16.1993 62.1012 16.1861 62.1057C16.0373 62.837 15.8576 63.5683 15.6896 64.2451C15.3154 65.7592 15.0149 66.9805 15.2579 67.1423C15.3375 67.0982 15.4333 66.9304 15.5334 66.6847C15.6469 66.4066 15.7544 66.0461 15.8517 65.6459C16.189 64.2539 16.4085 62.4205 16.2214 62.0954ZM21.0949 52.075C21.2908 51.7557 21.3468 51.1039 21.2393 50.5977C21.1008 51.176 21.0478 51.6512 21.0596 51.9573C21.0625 52.0162 21.0669 52.0662 21.0728 52.1074C21.0802 52.0985 21.0875 52.0868 21.0949 52.075ZM36.7716 38.3997C36.8099 38.3599 36.8482 38.3202 36.885 38.2805C37.4066 37.7081 36.9734 37.1283 36.3738 36.322C35.8965 35.6819 35.3234 34.9124 34.9949 33.8898C34.5632 32.5464 34.5249 30.1479 34.9905 28.0144C35.3676 26.2855 36.0762 24.7199 37.1767 23.9974L39.5516 22.4392C41.486 21.112 42.8958 19.6567 44.126 18.3854C47.1668 15.244 49.1483 13.1987 55.1605 16.6727C55.8029 17.0435 56.4806 17.4864 57.1803 18.0264C57.8801 18.5664 58.6005 19.2035 59.3283 19.9643C61.4822 22.2155 63.0379 22.9689 64.4419 23.6487C65.0165 23.9268 65.566 24.1931 66.1244 24.5448C66.4941 24.7773 66.8448 25.0789 67.1762 25.4379C68.8734 27.2831 70.0653 30.688 70.5367 34.0972C71.0081 37.5109 70.7562 40.9437 69.5629 42.836C69.3728 43.1376 69.1577 43.4025 68.9191 43.6217C67.6845 44.7547 66.2452 45.5228 64.8368 46.0275C62.895 46.7249 61.0137 46.9236 59.8189 46.8927C58.9202 46.8691 58.3427 47.1502 58.0908 47.4327C58.0216 47.5092 57.9818 47.5813 57.9715 47.6416C57.9656 47.6725 57.9685 47.6975 57.9833 47.7108C58.026 47.7535 58.1321 47.7667 58.3088 47.7314C59.3843 47.5195 60.5246 47.4136 61.6663 47.3061C65.7074 46.928 69.7736 46.5469 71.1319 41.3219C71.6107 39.4826 71.8715 37.352 71.8744 35.2096C71.8773 33.1732 71.6475 31.1264 71.1496 29.3107L71.1245 29.2209C70.6943 27.6524 69.9017 24.7552 69.0708 21.9315C68.9368 21.6961 68.7953 21.4372 68.651 21.1591C67.3398 18.6503 65.7207 14.6407 66.2024 14.1051C66.3277 13.9653 66.4691 13.9741 66.6223 14.111C67.163 14.5965 68.3106 18.1323 69.3876 21.7785C69.529 22.0272 69.6631 22.2464 69.7824 22.4274C69.9268 22.6467 70.0387 22.8012 70.105 22.8718C70.4734 21.7741 70.2435 20.0378 69.7161 18.0043C69.1666 15.8884 68.2944 13.4547 67.4326 11.0828C66.2894 7.93101 64.2902 5.97696 62.5017 4.22892C62.0951 3.83163 61.7002 3.44612 61.3275 3.05767C61.0947 2.81636 60.8634 2.56327 60.6425 2.32049C59.7968 1.39644 59.1029 0.637186 58.3192 0.540073C56.566 0.322303 54.9734 0.312004 53.5842 0.395874C52.192 0.479745 51.0031 0.656316 50.0602 0.812286C46.2342 1.44647 45.2088 3.46819 42.8207 8.17085C42.4524 8.89478 42.0532 9.68346 41.5891 10.5707C40.3236 12.9912 39.0183 15.4911 38.043 17.4584C37.0942 19.3727 36.4711 20.7309 36.5388 20.8971C36.5388 20.8986 36.6272 20.8736 36.7804 20.8295C37.1384 20.7279 37.6909 20.4587 38.3318 20.0952C38.9049 19.77 39.5472 19.3683 40.188 18.9387C40.6477 18.4678 41.0985 17.9793 41.5184 17.5232C42.3699 16.5991 43.1006 15.8075 43.5573 15.5485C43.8358 15.3911 44.0464 15.3984 44.1731 15.6236C44.456 16.1224 42.6174 17.7056 40.6403 19.0564C40.5652 19.1079 40.4901 19.1594 40.4134 19.2094C39.4986 20.1438 38.5454 21.0075 37.7101 21.4136C36.6832 21.9109 35.7345 22.9733 34.9772 24.1563C34.0034 25.6807 33.3537 27.3949 33.2668 28.3749C33.1725 29.4284 33.311 31.5296 34.4026 34.1796C34.9374 35.4774 35.6991 36.9032 36.7716 38.3997ZM68.5464 20.1791C67.683 17.3422 66.8551 14.8996 66.4249 14.4126C66.2407 15.0115 67.4296 17.9131 68.5464 20.1791ZM41.6186 17.9366C42.9621 16.9493 44.0081 16.037 43.8711 15.7957C43.8652 15.7854 43.8166 15.8075 43.7326 15.8546C43.3275 16.0841 42.613 16.8581 41.7806 17.7615L41.6186 17.9366ZM54.0114 48.5348C53.7536 48.3847 53.509 48.4465 53.073 48.5951C53.6947 48.9836 54.0939 49.1469 54.3311 49.1748C54.4121 49.1837 54.4519 49.1807 54.4637 49.1675C54.4725 49.1572 54.4681 49.1248 54.4563 49.0792C54.4062 48.8938 54.2206 48.6569 54.0114 48.5348ZM45.6434 36.7826C45.7259 36.3676 45.7613 36.0733 45.7053 35.9924C45.6272 35.8791 45.4283 35.7717 45.2663 35.7585C45.2221 35.754 45.1882 35.757 45.1749 35.7702C45.1617 35.782 45.1587 35.8188 45.1705 35.8865C45.2 36.0689 45.337 36.3559 45.6434 36.7826ZM61.8284 37.1033C62.1378 36.553 62.4442 35.9733 62.7256 35.398C63.1543 34.521 63.5256 33.6573 63.7569 32.9319C63.9572 32.3021 64.2062 31.0573 64.464 29.7624C64.6511 28.8207 64.8441 27.854 65.0312 27.0697C65.0121 27.0241 64.9929 26.9785 64.9738 26.9329C64.6393 26.1398 64.2342 25.1745 63.3134 24.6036C62.5459 24.1269 61.491 23.2543 60.2668 22.242C56.0887 18.7871 49.8967 13.6666 46.8309 17.4084C46.246 18.122 45.6567 18.7033 45.1293 19.2256C43.961 20.3807 43.0992 21.2312 43.2848 22.5878C43.3319 22.9277 43.3894 23.3161 43.4483 23.7046C43.6546 25.0863 43.8608 26.4562 43.6988 27.1433C43.7989 27.6598 43.8859 28.1777 43.9595 28.6809C44.3661 31.4766 45.7377 34.7667 47.6544 37.3888C48.8875 39.0736 50.3431 40.4802 51.9106 41.2954C53.4604 42.1003 55.1193 42.3269 56.7767 41.6691C57.8418 41.2468 58.9099 40.4582 59.9544 39.2251C60.4421 38.6498 60.999 38.0289 61.5455 37.4197C61.6384 37.3137 61.7341 37.2078 61.8284 37.1033ZM65.5984 26.2914C65.5336 26.5077 65.4673 26.7607 65.3995 27.0418C65.5277 27.3405 65.6514 27.6009 65.7958 27.7834C65.9063 27.9232 66.0257 28.0085 66.145 28.0468C66.257 28.0821 66.3689 28.0762 66.4735 28.0335C66.5855 27.9879 66.6901 27.9011 66.777 27.7775C66.9081 27.5906 66.9965 27.3272 67.0068 27.0006C67.0378 26.003 66.2849 25.7778 65.8032 25.6336H65.8003C65.7988 25.6322 65.7207 25.8852 65.5984 26.2914ZM43.2848 27.2478C43.3098 27.2389 43.3305 27.2228 43.3481 27.1963C43.1109 25.9647 42.806 24.7493 42.4819 23.7988C42.2845 23.222 42.0812 22.7467 41.8823 22.4304C41.7187 22.1714 41.5773 22.0316 41.4712 22.0596C41.4609 22.0625 41.4506 22.0669 41.4403 22.0728C41.181 22.2214 41.1118 22.7585 41.1368 23.4059C41.1795 24.4845 41.5051 25.8264 41.6952 26.3546C41.8248 26.7151 42.0679 26.9667 42.3419 27.1168C42.6646 27.2949 43.024 27.3346 43.2848 27.2478ZM87.4966 103.426C86.8292 103.585 85.2396 103.682 83.4599 103.735C83.4614 104.182 83.429 104.55 83.3494 104.622L83.3465 104.624L83.3435 104.625C83.2433 104.708 81.3812 104.758 79.5382 104.761C77.6863 104.764 75.8197 104.714 75.7166 104.599L75.7151 104.597L75.7122 104.594C75.6429 104.509 75.5899 104.35 75.5324 104.173C75.4617 103.959 75.3822 103.71 75.3262 103.688C75.2157 103.642 57.9346 103.658 43.6988 103.716C39.5428 103.732 35.6519 103.75 32.5346 103.766C32.5154 104.237 32.4683 104.675 32.4064 104.756C32.3283 104.859 31.0908 104.939 29.6662 104.987C27.7363 105.055 25.4189 105.095 25.298 105.061C25.2789 105.055 25.2597 105.048 25.2406 105.036C25.108 104.958 25.0284 104.702 24.999 104.428C24.9739 104.182 24.9813 103.907 25.027 103.748C25.0388 103.709 25.0535 103.672 25.0726 103.641C25.1227 103.557 27.9278 103.492 32.1928 103.445C32.1972 103.088 32.1913 102.758 32.1692 102.643C31.8569 102.583 30.173 102.555 28.4891 102.556C26.8273 102.558 25.1876 102.584 24.8914 102.634C24.8826 102.737 24.8885 102.98 24.8944 103.221C24.9032 103.616 24.9135 104.01 24.778 104.098C24.6896 104.156 23.8926 104.16 23.0101 104.166C21.9818 104.172 20.8666 104.115 20.8489 104.147C20.8297 104.182 20.8238 104.859 20.8798 105.439C20.9108 105.751 20.9579 106.016 21.0271 106.086C21.0699 106.129 21.5752 106.217 22.1483 106.319C23.0057 106.47 23.9987 106.645 24.1637 106.906C24.2668 107.069 24.4333 107.272 24.5953 107.44C24.7382 107.587 24.8679 107.702 24.9297 107.723C25.0284 107.755 45.1381 107.824 61.5676 107.845C72.7952 107.859 82.2902 107.852 82.4714 107.796C82.6703 107.734 82.9782 107.493 83.292 107.246C83.6721 106.947 84.0625 106.64 84.3733 106.57C84.6297 106.513 85.4414 106.141 86.1795 105.763C86.8322 105.429 87.4141 105.103 87.4583 105.02C87.4656 105.015 87.4774 104.44 87.4966 103.426ZM82.6172 103.405C82.7808 103.402 82.9428 103.398 83.1034 103.394L83.1005 103.307C83.0754 102.705 83.0253 102.087 82.9826 102.015C82.9443 101.98 81.3768 101.962 79.7812 101.962C78.1872 101.962 76.5976 101.99 76.4797 102.043C76.4223 102.109 76.3869 102.392 76.3781 102.689C76.3678 102.993 76.3884 103.289 76.4399 103.369C76.5357 103.447 79.6663 103.469 82.6172 103.405ZM32.1869 103.767C28.0677 103.788 25.3835 103.807 25.3776 103.817C25.3761 103.82 25.3717 103.831 25.3688 103.844C25.3349 103.963 25.3305 104.185 25.3526 104.391C25.3688 104.552 25.3923 104.688 25.4144 104.725C25.6413 104.747 27.8173 104.702 29.6588 104.637C30.9936 104.59 32.128 104.549 32.1309 104.544C32.153 104.512 32.1751 104.166 32.1869 103.767Z" fill="white"/>
<path d="M31.3421 150.081V133.289H36.0745V135.46C37.3675 133.651 39.1001 132.746 41.2723 132.746C43.4704 132.746 45.1255 133.431 46.2374 134.801C47.1167 135.887 47.5563 137.464 47.5563 139.532V150.081H42.8239V140.929C42.8239 139.351 42.5265 138.253 41.9318 137.632C41.3887 137.063 40.6517 136.779 39.7207 136.779C38.4277 136.779 37.458 137.27 36.8115 138.253C36.3201 139.028 36.0745 140.114 36.0745 141.51V150.081H31.3421Z" fill="#E4585D"/>
<path d="M52.0629 133.289H56.7953V150.081H52.0629V133.289ZM52.412 128.209C51.869 127.64 51.5974 126.968 51.5974 126.192C51.5974 125.416 51.869 124.757 52.412 124.214C52.981 123.645 53.6533 123.361 54.4291 123.361C55.2049 123.361 55.8643 123.645 56.4074 124.214C56.9763 124.757 57.2608 125.416 57.2608 126.192C57.2608 126.968 56.9763 127.64 56.4074 128.209C55.8643 128.751 55.2049 129.023 54.4291 129.023C53.6533 129.023 52.981 128.751 52.412 128.209Z" fill="#E4585D"/>
<path d="M61.3059 150.081V133.289H66.0382V135.46C67.3312 133.651 69.0639 132.746 71.2361 132.746C73.4342 132.746 75.0893 133.431 76.2012 134.801C77.0805 135.887 77.5201 137.464 77.5201 139.532V150.081H72.7877V140.929C72.7877 139.351 72.4903 138.253 71.8955 137.632C71.3525 137.063 70.6155 136.779 69.6845 136.779C68.3915 136.779 67.4218 137.27 66.7753 138.253C66.2839 139.028 66.0382 140.114 66.0382 141.51V150.081H61.3059Z" fill="#E4585D"/>
<path d="M82.0267 133.289H86.7591V158.961H82.0267V133.289ZM82.3758 128.209C81.8328 127.64 81.5612 126.968 81.5612 126.192C81.5612 125.416 81.8328 124.757 82.3758 124.214C82.9447 123.645 83.6171 123.361 84.3929 123.361C85.1687 123.361 85.8281 123.645 86.3712 124.214C86.9401 124.757 87.2246 125.416 87.2246 126.192C87.2246 126.968 86.9401 127.64 86.3712 128.209C85.8281 128.751 85.1687 129.023 84.3929 129.023C83.6171 129.023 82.9447 128.751 82.3758 128.209Z" fill="#E4585D"/>
<path d="M104.148 135.46V133.289H108.88V150.081H104.148V147.909C102.881 149.719 101.161 150.624 98.9889 150.624C96.4546 150.624 94.3858 149.758 92.7825 148.025C91.205 146.293 90.4163 144.173 90.4163 141.665C90.4163 139.132 91.1921 137.012 92.7437 135.305C94.2953 133.599 96.2994 132.746 98.7561 132.746C101.187 132.746 102.984 133.651 104.148 135.46ZM103.295 138.291C102.415 137.387 101.303 136.934 99.9586 136.934C98.6139 136.934 97.5019 137.387 96.6227 138.291C95.7434 139.196 95.3038 140.321 95.3038 141.665C95.3038 143.01 95.7434 144.147 96.6227 145.078C97.5019 145.983 98.6139 146.435 99.9586 146.435C101.303 146.435 102.415 145.983 103.295 145.078C104.174 144.147 104.613 143.01 104.613 141.665C104.613 140.321 104.174 139.196 103.295 138.291Z" fill="#E4585D"/>
<path d="M-0.155312 124.214H4.88739V150.081H-0.155312V124.214Z" fill="white"/>
<path d="M24.7567 128.557H18.9382V150.081H13.8955V128.557H8.07696V124.214H24.7567V128.557Z" fill="white"/>
<path d="M65.0022 25.7546L65.1673 24.0051C65.1673 24.0051 63.8096 23.2683 63.6157 23.2489C60.2786 23.8909 57.711 23.4961 53.8119 23.4961C50.2535 23.4961 46.8579 23.1987 43.756 22.6587C43.6272 22.6366 43.5093 22.7336 43.5093 22.8627V25.7546C43.5093 26.9758 43.162 27.9752 42.4777 28.7321C42.4083 28.8091 42.4068 28.9247 42.4748 29.0031C42.8937 29.4818 43.1866 30.0517 43.3516 30.7102C43.3783 30.8157 43.4832 30.8814 43.591 30.8621C46.7371 30.3028 50.1891 29.9954 53.8112 29.9954C57.7609 29.9954 61.5096 30.3613 64.8799 31.0205C64.992 31.0426 65.1005 30.972 65.1244 30.8614C65.2807 30.1388 65.5852 29.5175 66.0359 29.0031C66.1046 28.9247 66.1032 28.8091 66.0337 28.7321C65.3494 27.9745 65.0022 26.9751 65.0022 25.7546ZM50.6528 26.6063C50.0553 27.2462 49.1981 27.6478 48.2468 27.6478C47.0286 27.6478 45.9667 26.9915 45.4053 26.0178C45.3634 25.9443 45.4176 25.853 45.503 25.8537C46.358 25.8587 47.263 25.9136 48.1933 26.0228C49.031 26.1212 49.8361 26.2575 50.595 26.4251C50.6782 26.4437 50.71 26.5442 50.6528 26.6063ZM62.2193 26.0178C61.6579 26.9915 60.5959 27.6478 59.3777 27.6478C58.425 27.6478 57.5685 27.2469 56.9717 26.6063C56.9138 26.5442 56.9464 26.4437 57.0296 26.4251C57.7884 26.2575 58.5943 26.1212 59.4313 26.0228C60.363 25.9136 61.2665 25.8587 62.1216 25.8537C62.207 25.853 62.2612 25.945 62.2193 26.0178Z" fill="#E4585D"/>
</g>
<defs>
<clipPath id="clip0_63_48">
<rect width="109" height="159" fill="white"/>
</clipPath>
</defs>
</svg>
