<svg width="29" height="41" viewBox="0 0 29 41" fill="none" xmlns="http://www.w3.org/2000/svg">
<path d="M25.9926 25.0055C26.0175 25.0009 26.0508 24.9967 26.0925 24.9926C26.2847 24.7831 26.4546 24.5612 26.5962 24.3316C27.0015 23.6725 27.1585 22.9634 27.104 22.2668C27.0465 21.5318 26.754 20.8106 26.2696 20.1777C26.1523 20.024 25.7768 19.9982 25.5161 19.98C25.406 19.9724 25.3151 19.966 25.2644 19.9512C25.2118 19.936 25.1876 19.9094 25.2005 19.8658C25.2228 19.7892 25.3893 19.7854 25.5853 19.7808C25.7821 19.7763 26.0122 19.7713 26.1084 19.7099C26.4247 19.508 25.7473 18.0863 25.2762 17.0983C25.0427 16.6085 24.8587 16.2222 24.8663 16.1171C24.886 15.8454 24.8266 15.4637 24.7388 15.098C24.6264 14.6298 24.4678 14.1896 24.3679 14.0394C24.3516 14.0147 24.3527 13.9996 24.3497 14.0015C24.3285 14.0155 24.3119 14.1187 24.2945 14.2242C24.2789 14.3183 24.2634 14.4143 24.2358 14.4731C24.207 14.5342 24.1669 14.5626 24.1086 14.5353C23.997 14.4826 24.0027 14.3057 24.0106 14.0618C24.0167 13.8762 24.0239 13.6486 23.983 13.4145C23.7276 11.9412 22.4162 11.0416 21.6117 10.6686C21.4406 10.5893 21.293 10.5343 21.1836 10.5024C21.117 10.4831 21.0686 10.4717 21.0417 10.4683C21.0773 10.5813 21.1386 10.7991 21.1617 10.9259C21.1689 10.9665 21.1727 10.9995 21.1708 11.02C21.1632 11.1 21.1329 11.1186 21.0716 11.0522C21.0523 11.0313 21.0228 10.9809 20.9793 10.8902C20.8843 10.6925 20.678 10.4724 20.4563 10.2824C20.1622 10.0304 19.8455 9.83388 19.7274 9.81415C19.6748 9.80542 19.6566 9.91242 19.6214 10.1192C19.5707 10.4178 19.4893 10.8966 19.1873 11.5071C19.1643 11.5542 19.137 11.599 19.1064 11.6414C18.7578 12.129 17.926 12.4007 17.1426 12.5308C16.3603 12.661 15.6197 12.6484 15.4589 12.5684C15.4509 12.5642 15.4438 12.5604 15.4381 12.5562C15.3798 12.5145 15.3843 12.4576 15.4339 12.3882C15.4986 12.2975 15.6564 12.1745 15.8423 12.0292C15.8828 11.9977 15.9244 11.9651 15.9603 11.9366C16.1185 11.8118 16.2733 11.7006 16.419 11.5963C17.1063 11.1034 17.5816 10.7627 17.3704 9.64455C17.339 9.47798 17.3322 9.31711 17.3394 9.17482C17.23 9.31104 17.096 9.46281 16.956 9.61989C16.8981 9.72309 16.8398 9.82174 16.7838 9.91318C16.1851 10.8853 15.5281 11.218 14.8621 11.1326C14.2013 11.048 13.5364 10.5495 12.9131 9.85589C12.8597 9.79632 12.8124 9.74168 12.7715 9.69122C12.7594 9.74358 12.7462 9.79821 12.7329 9.85437C12.658 10.167 12.5721 10.5237 12.5975 10.7054C12.613 10.8162 12.6815 10.9672 12.8064 11.138C12.9172 11.2893 13.0717 11.4548 13.2722 11.6198C13.4153 11.7378 13.5947 11.8467 13.7843 11.9621C13.9602 12.0691 14.1449 12.1814 14.3186 12.3111C14.4 12.3718 14.473 12.4238 14.5381 12.4674L14.5688 12.4568C14.73 12.4011 14.8121 12.3726 14.9207 12.4363C14.9938 12.4792 15.0589 12.5642 15.0767 12.6317C15.0869 12.6712 15.0835 12.7076 15.0604 12.7353C15.0381 12.7619 15.0013 12.7759 14.9469 12.7695C14.8685 12.7604 14.7349 12.7042 14.5253 12.5672C14.3519 12.6257 14.0919 12.7012 13.6575 12.7395C12.7715 12.8184 12.006 11.9143 10.9527 10.6716C10.874 10.5787 10.7938 10.4838 10.7207 10.3985C10.6174 10.277 10.5221 10.1564 10.4343 10.0376C10.1149 10.3207 9.59184 10.5624 9.02645 10.8238C8.03605 11.2818 6.91283 11.8012 6.56844 12.6902C6.54081 12.7615 6.51697 12.8306 6.49729 12.8966C6.51508 12.9265 6.5287 12.9622 6.53892 13.0009C6.57828 13.1542 6.56125 13.369 6.49691 13.4741C6.47307 13.5128 6.44923 13.5351 6.42615 13.5427C6.38679 13.556 6.35765 13.5397 6.3391 13.498C6.32889 13.4752 6.32283 13.4422 6.32132 13.4001C6.31715 13.2953 6.33986 13.1216 6.3989 12.9136C6.38603 12.9007 6.37127 12.8932 6.355 12.8924C6.32018 12.8909 6.27325 12.9159 6.21308 12.9789C6.18924 13.004 6.16048 13.0313 6.12869 13.0624C6.00418 13.1827 5.82782 13.353 5.70899 13.5822C5.57388 13.8421 5.46111 14.1544 5.38012 14.4625C5.29421 14.7895 5.24388 15.1113 5.24085 15.3609C5.23896 15.5343 5.21323 15.7259 5.1769 15.9198C5.17879 15.9198 5.1803 15.9198 5.18182 15.9202C5.20074 15.9217 5.21663 15.9293 5.2295 15.943C5.3033 16.023 5.25486 16.5561 5.16024 16.948C5.13413 17.0562 5.10499 17.1537 5.07472 17.2284C5.04103 17.3112 5.00357 17.37 4.96269 17.3923C4.93431 17.4075 4.90593 17.4083 4.87717 17.3916C4.75304 17.3199 4.83781 16.9738 4.94377 16.5432C4.97935 16.399 5.01681 16.2454 5.05049 16.0902C5.03687 16.1019 5.02249 16.1148 5.00773 16.1289C4.91842 16.2123 4.8117 16.3315 4.7046 16.4707C4.42492 16.835 4.14525 17.3339 4.18348 17.6811C4.23192 18.122 3.96928 18.9651 3.79141 19.5368C3.69906 19.8335 3.63019 20.0551 3.63965 20.0878C3.65138 20.1276 3.74524 20.1709 3.82357 20.2065C3.89699 20.2403 3.96019 20.2691 3.97079 20.3124C3.98139 20.3553 3.95414 20.3883 3.86861 20.4091C3.80768 20.4239 3.74902 20.4418 3.69225 20.4623C3.14161 20.6592 2.82864 21.091 2.68483 21.6039C2.53951 22.1222 2.56638 22.7232 2.69543 23.251C2.72495 23.3717 2.76014 23.4893 2.79988 23.6012C2.94634 24.0133 3.24758 24.4124 3.56547 24.7194C3.94278 25.0832 4.33864 25.3154 4.52181 25.2805C4.71973 25.243 4.9994 25.3837 5.26924 25.5203C5.51485 25.6444 5.75251 25.7643 5.88383 25.7298C5.99926 25.6349 5.98071 24.6556 5.91638 23.6312C5.85129 22.5969 5.73548 21.522 5.66206 21.2515C5.65525 21.2264 5.64995 21.2112 5.64693 21.2074C5.57653 21.1202 5.1364 21.19 4.82721 21.2389C4.68302 21.2617 4.56571 21.2803 4.51613 21.2769C4.47299 21.2738 4.45104 21.2556 4.45369 21.2192C4.45823 21.1562 4.72465 21.0819 5.01379 21.001L5.01492 21.0007C5.10045 20.9767 5.1962 20.9635 5.28967 20.9506C5.49744 20.9217 5.69537 20.8944 5.70294 20.7593C5.70861 20.6603 5.65714 20.6068 5.57767 20.5765C5.48571 20.5416 5.35552 20.5336 5.22534 20.5264H5.22269C4.96005 20.512 4.6361 20.4937 4.63383 20.4167C4.63156 20.3435 4.80223 20.3351 5.01568 20.3245C5.25221 20.3128 5.54929 20.2983 5.66963 20.2361C5.76424 20.1872 5.68969 18.8672 5.61476 17.5498C5.54626 16.3395 5.47776 15.1314 5.55799 14.8692C5.67569 14.4852 6.64564 14.5247 7.38286 14.5547C7.75563 14.5698 8.06709 14.5823 8.1564 14.5399C8.15716 14.5395 8.1564 14.5399 8.15829 14.5387C8.20143 14.5167 8.20635 14.4458 8.18819 14.3505C8.167 14.239 8.11326 14.1001 8.04779 13.9616C8.03076 13.9256 8.0141 13.8914 7.99783 13.8595C7.95053 13.767 7.89716 13.6733 7.85024 13.5913C7.77568 13.4608 7.71816 13.3595 7.71627 13.3082C7.71513 13.2669 7.7333 13.2437 7.77568 13.2426C7.82753 13.2411 7.90171 13.3014 7.97929 13.4008C8.04854 13.4896 8.12499 13.6125 8.19235 13.7491C8.23058 13.8273 8.26615 13.9096 8.30021 13.9901C8.38347 14.1847 8.46181 14.3672 8.55755 14.4283C8.68093 14.5068 11.6839 14.4841 15.0006 14.4587C19.1094 14.4272 23.6977 14.3923 23.9558 14.5611C24.2778 14.7717 24.1404 17.252 24.0504 18.8785C24.0076 19.6526 23.9758 20.2281 23.9864 20.2342C24.0023 20.2433 24.0576 20.2638 24.1401 20.2949C24.7017 20.5063 26.4815 21.1763 26.6295 22.2687C26.6367 22.3222 26.6238 22.3518 26.5852 22.3567C26.5352 22.3635 26.4474 22.2429 26.262 21.9872C26.1924 21.8912 26.1076 21.7743 25.9975 21.6252C25.8317 21.4006 25.529 21.1858 25.2084 21.006C24.6945 20.718 24.1412 20.5222 24.0277 20.5192C24.0254 20.5192 24.0231 20.5195 24.0208 20.5207C23.9989 20.5298 23.9807 20.5704 23.9667 20.6296C23.9501 20.6994 23.9418 20.7905 23.9395 20.8868C23.9342 21.1145 23.9622 21.3683 23.9959 21.451C24.0133 21.4939 24.1552 21.6855 24.352 21.9333C24.5295 22.1571 24.7516 22.4254 24.967 22.6712C25.1759 22.9095 25.3621 23.1254 25.4892 23.2863C25.6417 23.4794 25.703 23.6058 25.6156 23.6251C25.4601 23.66 24.9079 22.9903 24.4576 22.4447C24.1768 22.1044 23.9372 21.8141 23.8944 21.791C23.8926 21.8039 23.8869 21.8919 23.874 22.0319C23.8577 22.2061 23.8452 22.4489 23.8373 22.7266C23.8142 23.5314 23.8282 24.626 23.8873 25.1845C23.9206 25.4987 24.0924 25.5833 24.3327 25.5575C24.5669 25.5328 24.8667 25.4092 25.1709 25.2839C25.4533 25.1694 25.7416 25.0506 25.9926 25.0055ZM3.87126 20.3298C3.87958 20.3359 3.88412 20.3427 3.88223 20.3355C3.88185 20.3351 3.87807 20.3333 3.87126 20.3298ZM5.16668 16.012C5.16403 16.0124 5.161 16.0135 5.1576 16.0147C5.11937 16.2032 5.0732 16.3918 5.03006 16.5663C4.93393 16.9568 4.85673 17.2717 4.91917 17.3134C4.93961 17.302 4.96421 17.2588 4.98994 17.1954C5.01908 17.1237 5.04671 17.0308 5.07169 16.9276C5.15835 16.5686 5.21474 16.0959 5.16668 16.012ZM6.41858 13.4281C6.46891 13.3458 6.48329 13.1777 6.45566 13.0472C6.42009 13.1963 6.40647 13.3189 6.40949 13.3978C6.41025 13.413 6.41139 13.4259 6.4129 13.4365C6.41479 13.4342 6.41668 13.4312 6.41858 13.4281ZM10.4456 9.9018C10.4555 9.89155 10.4653 9.88131 10.4748 9.87106C10.6087 9.72347 10.4975 9.57398 10.3434 9.36605C10.2208 9.201 10.0736 9.00257 9.98921 8.73887C9.87833 8.39246 9.86849 7.774 9.98808 7.22384C10.085 6.77801 10.267 6.37431 10.5497 6.18801L11.1597 5.7862C11.6566 5.44397 12.0188 5.06872 12.3348 4.7409C13.1159 3.93083 13.6249 3.40343 15.1694 4.29925C15.3344 4.39486 15.5085 4.50907 15.6882 4.64832C15.868 4.78757 16.053 4.95185 16.24 5.14802C16.7933 5.72853 17.1929 5.9228 17.5536 6.09809C17.7012 6.1698 17.8423 6.23848 17.9858 6.32916C18.0808 6.38911 18.1708 6.46689 18.256 6.55947C18.692 7.03526 18.9981 7.91325 19.1192 8.79237C19.2403 9.67263 19.1756 10.5578 18.8691 11.0458C18.8202 11.1235 18.765 11.1918 18.7037 11.2484C18.3865 11.5405 18.0168 11.7386 17.655 11.8687C17.1562 12.0486 16.6729 12.0998 16.366 12.0918C16.1352 12.0858 15.9868 12.1582 15.9221 12.2311C15.9043 12.2508 15.8941 12.2694 15.8915 12.2849C15.8899 12.2929 15.8907 12.2994 15.8945 12.3028C15.9055 12.3138 15.9327 12.3172 15.9781 12.3081C16.2544 12.2535 16.5473 12.2261 16.8406 12.1984C17.8787 12.1009 18.9232 12.0027 19.2721 10.6553C19.3951 10.1811 19.4621 9.63165 19.4628 9.07921C19.4636 8.55409 19.4046 8.02631 19.2767 7.55811L19.2702 7.53496C19.1597 7.1305 18.9561 6.38342 18.7427 5.6553C18.7082 5.5946 18.6719 5.52782 18.6348 5.45611C18.298 4.80919 17.8821 3.77527 18.0058 3.63716C18.038 3.60111 18.0743 3.60339 18.1137 3.63867C18.2526 3.76388 18.5474 4.67564 18.824 5.61584C18.8604 5.67997 18.8948 5.7365 18.9255 5.78317C18.9625 5.8397 18.9913 5.87954 19.0083 5.89775C19.1029 5.61471 19.0439 5.16699 18.9084 4.64263C18.7673 4.09702 18.5432 3.46945 18.3218 2.85782C18.0282 2.0451 17.5146 1.54123 17.0552 1.09048C16.9507 0.988031 16.8493 0.888623 16.7536 0.788455C16.6938 0.72623 16.6343 0.66097 16.5776 0.598365C16.3604 0.360088 16.1821 0.164306 15.9808 0.139264C15.5304 0.0831096 15.1213 0.0804538 14.7644 0.102081C14.4068 0.123708 14.1014 0.169239 13.8592 0.209457C12.8764 0.372988 12.613 0.894314 11.9995 2.10695C11.9049 2.29362 11.8023 2.49699 11.6831 2.72578C11.3581 3.34993 11.0227 3.99457 10.7722 4.50186C10.5285 4.99549 10.3684 5.34569 10.3858 5.38857C10.3858 5.38895 10.4085 5.3825 10.4479 5.37112C10.5399 5.34494 10.6818 5.2755 10.8464 5.18178C10.9936 5.09793 11.1586 4.99435 11.3232 4.88356C11.4413 4.76214 11.5571 4.63618 11.665 4.51855C11.8837 4.28028 12.0714 4.07615 12.1887 4.00937C12.2603 3.96877 12.3144 3.97067 12.3469 4.02872C12.4196 4.15734 11.9473 4.5656 11.4394 4.91391C11.4201 4.92719 11.4008 4.94047 11.3811 4.95337C11.1461 5.19431 10.9013 5.41703 10.6867 5.52175C10.4229 5.64999 10.1792 5.92393 9.98467 6.22899C9.73452 6.62207 9.56762 7.0641 9.5453 7.31679C9.52108 7.58846 9.55665 8.13027 9.83708 8.81361C9.97445 9.14826 10.1701 9.51592 10.4456 9.9018ZM18.6079 5.20341C18.3862 4.47189 18.1735 3.84205 18.063 3.71646C18.0157 3.87088 18.3211 4.6191 18.6079 5.20341ZM11.6907 4.62517C12.0358 4.37058 12.3045 4.13534 12.2693 4.07311C12.2678 4.07046 12.2553 4.07615 12.2338 4.08829C12.1297 4.14748 11.9462 4.34706 11.7323 4.58002L11.6907 4.62517ZM14.8742 12.5153C14.808 12.4766 14.7451 12.4925 14.6331 12.5308C14.7928 12.631 14.8954 12.6731 14.9563 12.6803C14.9771 12.6826 14.9873 12.6818 14.9904 12.6784C14.9926 12.6758 14.9915 12.6674 14.9885 12.6556C14.9756 12.6078 14.9279 12.5467 14.8742 12.5153ZM12.7246 9.48481C12.7458 9.37781 12.7549 9.30193 12.7405 9.28106C12.7205 9.25185 12.6694 9.22415 12.6277 9.22073C12.6164 9.21959 12.6077 9.22035 12.6043 9.22377C12.6009 9.2268 12.6001 9.23629 12.6031 9.25374C12.6107 9.30079 12.6459 9.37478 12.7246 9.48481ZM16.8822 9.56753C16.9617 9.42562 17.0404 9.27613 17.1127 9.12778C17.2228 8.90164 17.3182 8.67892 17.3776 8.49186C17.4291 8.32947 17.493 8.00848 17.5593 7.67459C17.6073 7.43176 17.6569 7.18248 17.705 6.98025C17.7 6.96848 17.6951 6.95672 17.6902 6.94496C17.6043 6.74045 17.5002 6.49155 17.2637 6.34433C17.0665 6.2214 16.7956 5.9964 16.4811 5.73536C15.4078 4.84448 13.8172 3.52409 13.0296 4.48896C12.8794 4.67298 12.728 4.82285 12.5925 4.95755C12.2924 5.25539 12.071 5.4747 12.1187 5.82453C12.1308 5.91217 12.1456 6.01234 12.1607 6.11251C12.2137 6.46878 12.2667 6.82203 12.2251 6.99922C12.2508 7.13239 12.2731 7.26595 12.2921 7.39571C12.3965 8.11662 12.7488 8.965 13.2412 9.64113C13.558 10.0756 13.9319 10.4383 14.3345 10.6485C14.7327 10.856 15.1588 10.9145 15.5845 10.7449C15.8582 10.636 16.1325 10.4326 16.4008 10.1147C16.5261 9.9663 16.6692 9.80618 16.8096 9.6491C16.8334 9.62178 16.858 9.59446 16.8822 9.56753ZM17.8507 6.77953C17.834 6.83531 17.817 6.90057 17.7996 6.97304C17.8325 7.05006 17.8643 7.11722 17.9014 7.16427C17.9298 7.20031 17.9604 7.22232 17.9911 7.23218C18.0198 7.24129 18.0486 7.23977 18.0755 7.22877C18.1042 7.217 18.1311 7.19462 18.1534 7.16275C18.1871 7.11456 18.2098 7.04664 18.2125 6.96241C18.2204 6.70516 18.027 6.64711 17.9033 6.60993H17.9025C17.9021 6.60955 17.8821 6.67481 17.8507 6.77953ZM12.1187 7.02616C12.1252 7.02388 12.1305 7.01971 12.135 7.01288C12.0741 6.6953 11.9957 6.3819 11.9125 6.13679C11.8618 5.98806 11.8095 5.8655 11.7584 5.78393C11.7164 5.71715 11.6801 5.6811 11.6529 5.68831C11.6502 5.68907 11.6476 5.69021 11.6449 5.69173C11.5783 5.73005 11.5605 5.86854 11.567 6.03548C11.5779 6.3136 11.6616 6.65963 11.7104 6.79585C11.7437 6.88881 11.8061 6.95369 11.8765 6.99239C11.9594 7.0383 12.0517 7.04854 12.1187 7.02616ZM23.4759 26.6696C23.3045 26.7106 22.8961 26.7356 22.4389 26.7493C22.4393 26.8646 22.431 26.9595 22.4106 26.9781L22.4098 26.9784L22.409 26.9788C22.3833 27.0001 21.905 27.013 21.4315 27.0137C20.9558 27.0145 20.4763 27.0016 20.4498 26.972L20.4495 26.9716L20.4487 26.9709C20.4309 26.9489 20.4173 26.9079 20.4025 26.8623C20.3844 26.8069 20.3639 26.7428 20.3495 26.7371C20.3212 26.7254 15.882 26.7295 12.2251 26.7443C11.1575 26.7485 10.158 26.7531 9.35721 26.7572C9.35229 26.8787 9.34018 26.9917 9.32428 27.0126C9.30423 27.0392 8.98633 27.0596 8.62037 27.0722C8.12461 27.0896 7.52931 27.0999 7.49828 27.0911C7.49336 27.0896 7.48844 27.0877 7.48352 27.0847C7.44946 27.0646 7.42903 26.9986 7.42146 26.928C7.41502 26.8646 7.41692 26.7937 7.42865 26.7527C7.43168 26.7424 7.43546 26.733 7.44038 26.725C7.45325 26.7034 8.17381 26.6867 9.26941 26.6745C9.27054 26.5823 9.26903 26.4973 9.26335 26.4677C9.18312 26.4522 8.75056 26.445 8.318 26.4454C7.89111 26.4457 7.4699 26.4526 7.39383 26.4655C7.39156 26.492 7.39307 26.5546 7.39459 26.6169C7.39686 26.7185 7.39951 26.8202 7.36469 26.843C7.34198 26.8578 7.13724 26.8589 6.91056 26.8604C6.6464 26.862 6.35992 26.8472 6.35538 26.8555C6.35046 26.8646 6.34894 27.0392 6.36332 27.1886C6.37127 27.2691 6.38338 27.3374 6.40117 27.3556C6.41214 27.3666 6.54195 27.3894 6.68917 27.4155C6.90942 27.4546 7.16449 27.4998 7.20688 27.5669C7.23337 27.609 7.27613 27.6614 7.31776 27.7047C7.35447 27.7426 7.38778 27.7722 7.40367 27.7775C7.42903 27.7859 12.5948 27.8037 16.8152 27.809C19.6994 27.8128 22.1385 27.8109 22.185 27.7965C22.2361 27.7805 22.3152 27.7183 22.3958 27.6546C22.4934 27.5776 22.5937 27.4983 22.6736 27.4804C22.7394 27.4656 22.948 27.3696 23.1376 27.2721C23.3052 27.186 23.4547 27.1021 23.466 27.0805C23.4679 27.0794 23.471 26.931 23.4759 26.6696ZM22.2225 26.6643C22.2645 26.6635 22.3061 26.6624 22.3474 26.6613L22.3466 26.6389C22.3402 26.4837 22.3273 26.3243 22.3163 26.3057C22.3065 26.2966 21.9038 26.2921 21.494 26.2921C21.0845 26.2921 20.6761 26.2993 20.6459 26.3129C20.6311 26.33 20.622 26.4029 20.6198 26.4795C20.6171 26.558 20.6224 26.6343 20.6357 26.6548C20.6603 26.6749 21.4644 26.6806 22.2225 26.6643ZM9.2679 26.7576C8.20976 26.7629 7.52023 26.7679 7.51872 26.7705C7.51834 26.7713 7.5172 26.7739 7.51645 26.7774C7.50774 26.8081 7.50661 26.8654 7.51229 26.9185C7.51645 26.9599 7.5225 26.9951 7.52818 27.0046C7.58646 27.0103 8.14542 26.9986 8.61848 26.9819C8.96135 26.9697 9.25276 26.9591 9.25351 26.958C9.25919 26.9496 9.26487 26.8604 9.2679 26.7576Z" fill="#14142A"/>
<path d="M9.05127 38.6998V34.3698H10.2669V34.9298C10.5991 34.4632 11.0442 34.2298 11.6022 34.2298C12.1668 34.2298 12.592 34.4065 12.8776 34.7598C13.1035 35.0398 13.2164 35.4465 13.2164 35.9798V38.6998H12.0007V36.3398C12.0007 35.9332 11.9243 35.6498 11.7716 35.4898C11.6321 35.3432 11.4427 35.2698 11.2036 35.2698C10.8714 35.2698 10.6223 35.3965 10.4563 35.6498C10.33 35.8498 10.2669 36.1298 10.2669 36.4898V38.6998H9.05127Z" fill="#E4585D"/>
<path d="M14.3741 34.3698H15.5897V38.6998H14.3741V34.3698ZM14.4637 33.0598C14.3242 32.9131 14.2545 32.7398 14.2545 32.5398C14.2545 32.3398 14.3242 32.1698 14.4637 32.0298C14.6099 31.8831 14.7826 31.8098 14.9819 31.8098C15.1812 31.8098 15.3506 31.8831 15.4901 32.0298C15.6362 32.1698 15.7093 32.3398 15.7093 32.5398C15.7093 32.7398 15.6362 32.9131 15.4901 33.0598C15.3506 33.1998 15.1812 33.2698 14.9819 33.2698C14.7826 33.2698 14.6099 33.1998 14.4637 33.0598Z" fill="#E4585D"/>
<path d="M16.7484 38.6998V34.3698H17.964V34.9298C18.2962 34.4632 18.7413 34.2298 19.2993 34.2298C19.8639 34.2298 20.2891 34.4065 20.5747 34.7598C20.8006 35.0398 20.9135 35.4465 20.9135 35.9798V38.6998H19.6979V36.3398C19.6979 35.9332 19.6215 35.6498 19.4687 35.4898C19.3292 35.3432 19.1398 35.2698 18.9007 35.2698C18.5686 35.2698 18.3194 35.3965 18.1534 35.6498C18.0272 35.8498 17.964 36.1298 17.964 36.4898V38.6998H16.7484Z" fill="#E4585D"/>
<path d="M22.0712 34.3698H23.2868V40.9898H22.0712V34.3698ZM22.1609 33.0598C22.0214 32.9131 21.9516 32.7398 21.9516 32.5398C21.9516 32.3398 22.0214 32.1698 22.1609 32.0298C22.307 31.8831 22.4797 31.8098 22.679 31.8098C22.8783 31.8098 23.0477 31.8831 23.1872 32.0298C23.3333 32.1698 23.4064 32.3398 23.4064 32.5398C23.4064 32.7398 23.3333 32.9131 23.1872 33.0598C23.0477 33.1998 22.8783 33.2698 22.679 33.2698C22.4797 33.2698 22.307 33.1998 22.1609 33.0598Z" fill="#E4585D"/>
<path d="M27.7537 34.9298V34.3698H28.9694V38.6998H27.7537V38.1398C27.4282 38.6065 26.9864 38.8398 26.4284 38.8398C25.7774 38.8398 25.246 38.6165 24.8341 38.1698C24.4289 37.7232 24.2263 37.1765 24.2263 36.5298C24.2263 35.8765 24.4256 35.3298 24.8242 34.8898C25.2227 34.4498 25.7376 34.2298 26.3686 34.2298C26.9931 34.2298 27.4548 34.4632 27.7537 34.9298ZM27.5345 35.6598C27.3086 35.4265 27.023 35.3098 26.6775 35.3098C26.3321 35.3098 26.0465 35.4265 25.8206 35.6598C25.5947 35.8932 25.4818 36.1832 25.4818 36.5298C25.4818 36.8765 25.5947 37.1698 25.8206 37.4098C26.0465 37.6432 26.3321 37.7598 26.6775 37.7598C27.023 37.7598 27.3086 37.6432 27.5345 37.4098C27.7603 37.1698 27.8733 36.8765 27.8733 36.5298C27.8733 36.1832 27.7603 35.8932 27.5345 35.6598Z" fill="#E4585D"/>
<path d="M0.959961 32.0302H2.25533V38.7002H0.959961V32.0302Z" fill="#14142A"/>
<path d="M7.35937 33.1502H5.86471V38.7002H4.56934V33.1502H3.07467V32.0302H7.35937V33.1502Z" fill="#14142A"/>
<path d="M17.6976 6.64129L17.74 6.19017C17.74 6.19017 17.3913 6.00017 17.3415 5.99517C16.4842 6.16072 15.8247 6.05893 14.8231 6.05893C13.909 6.05893 13.0367 5.98222 12.2399 5.84298C12.2068 5.83727 12.1765 5.86229 12.1765 5.89558V6.64129C12.1765 6.9562 12.0873 7.21391 11.9115 7.40907C11.8937 7.42894 11.8933 7.45873 11.9108 7.47897C12.0184 7.60239 12.0936 7.74936 12.136 7.91914C12.1429 7.94637 12.1698 7.96329 12.1975 7.95832C13.0057 7.81411 13.8924 7.73483 14.8229 7.73483C15.8375 7.73483 16.8004 7.8292 17.6662 7.99916C17.695 8.00486 17.7229 7.98665 17.729 7.95814C17.7692 7.77181 17.8474 7.61159 17.9632 7.47897C17.9808 7.45873 17.9804 7.42894 17.9626 7.40907C17.7868 7.21372 17.6976 6.95602 17.6976 6.64129ZM14.0116 6.86092C13.8581 7.02592 13.6379 7.12948 13.3935 7.12948C13.0806 7.12948 12.8078 6.96025 12.6636 6.70917C12.6528 6.69022 12.6667 6.66667 12.6886 6.66686C12.9083 6.66815 13.1408 6.68231 13.3797 6.71045C13.5949 6.73584 13.8018 6.77097 13.9967 6.8142C14.0181 6.81898 14.0262 6.84492 14.0116 6.86092ZM16.9827 6.70917C16.8385 6.96025 16.5657 7.12948 16.2528 7.12948C16.0081 7.12948 15.7881 7.0261 15.6347 6.86092C15.6199 6.84492 15.6282 6.81898 15.6496 6.8142C15.8445 6.77097 16.0516 6.73584 16.2666 6.71045C16.5059 6.68231 16.738 6.66815 16.9577 6.66686C16.9796 6.66667 16.9935 6.6904 16.9827 6.70917Z" fill="#E4585D"/>
</svg>
