<svg width="24" height="24" viewBox="0 0 24 24" fill="none" xmlns="http://www.w3.org/2000/svg">
<path d="M13.1562 2.39978C13.4084 2.39978 13.6025 2.60554 13.6025 2.85049V6.00544C13.6025 7.79848 15.0673 9.26818 16.8426 9.27798C17.5799 9.27798 18.1619 9.28777 18.6082 9.28777L18.7735 9.28705C19.0717 9.28478 19.4732 9.27798 19.8208 9.27798C20.0633 9.27798 20.2573 9.47394 20.2573 9.71889V17.5965C20.2573 20.0264 18.3074 21.9958 15.9016 21.9958H8.17961C5.65735 21.9958 3.60074 19.9284 3.60074 17.3809V6.81868C3.60074 4.38877 5.56034 2.39978 7.97589 2.39978H13.1562ZM14.1942 15.0392H8.91688C8.51914 15.0392 8.18931 15.3625 8.18931 15.7643C8.18931 16.166 8.51914 16.4991 8.91688 16.4991H14.1942C14.592 16.4991 14.9218 16.166 14.9218 15.7643C14.9218 15.3625 14.592 15.0392 14.1942 15.0392ZM12.1958 10.1402H8.91688C8.51914 10.1402 8.18931 10.4733 8.18931 10.875C8.18931 11.2768 8.51914 11.6001 8.91688 11.6001H12.1958C12.5936 11.6001 12.9234 11.2768 12.9234 10.875C12.9234 10.4733 12.5936 10.1402 12.1958 10.1402ZM15.0161 3.28748C15.0161 2.86519 15.5235 2.65551 15.8135 2.96023C16.8622 4.06152 18.6947 5.98683 19.7191 7.06265C20.0024 7.35953 19.7948 7.85237 19.3864 7.85335C18.589 7.85629 17.6489 7.85335 16.9728 7.84649C15.8999 7.84649 15.0161 6.95389 15.0161 5.87023V3.28748Z" fill="#E4585D"/>
</svg>
