<svg width="24" height="24" viewBox="0 0 24 24" fill="none" xmlns="http://www.w3.org/2000/svg">
<path fill-rule="evenodd" clip-rule="evenodd" d="M19.8398 18.193C19.8398 21.489 15.3198 21.87 11.9208 21.87L11.6775 21.8698C9.51196 21.8646 3.99976 21.7278 3.99976 18.173C3.99976 14.9443 8.33811 14.5128 11.7112 14.4965L12.164 14.4962C14.3294 14.5015 19.8398 14.6382 19.8398 18.193ZM11.9208 15.996C7.65976 15.996 5.49976 16.728 5.49976 18.173C5.49976 19.631 7.65976 20.37 11.9208 20.37C16.1808 20.37 18.3398 19.638 18.3398 18.193C18.3398 16.735 16.1808 15.996 11.9208 15.996ZM11.9208 1.99963C14.8488 1.99963 17.2298 4.38163 17.2298 7.30963C17.2298 10.2376 14.8488 12.6186 11.9208 12.6186H11.8888C8.96676 12.6096 6.59976 10.2266 6.60972 7.30663C6.60972 4.38163 8.99176 1.99963 11.9208 1.99963ZM11.9208 3.42763C9.77976 3.42763 8.03774 5.16863 8.03774 7.30963C8.03076 9.44363 9.75976 11.1836 11.8918 11.1916L11.9208 11.9056V11.1916C14.0608 11.1916 15.8018 9.44963 15.8018 7.30963C15.8018 5.16863 14.0608 3.42763 11.9208 3.42763Z" fill="white"/>
</svg>
