<svg width="140" height="24" viewBox="0 0 140 24" fill="none" xmlns="http://www.w3.org/2000/svg">
<path d="M11.9985 4.28552L14.3822 9.36349L19.7128 10.1828L15.8556 14.1332L16.7659 19.7141L11.9985 17.0778L7.23104 19.7141L8.14132 14.1332L4.28418 10.1828L9.61475 9.36349L11.9985 4.28552Z" fill="#FFB832" stroke="#FFB832" stroke-width="1.5" stroke-linecap="round" stroke-linejoin="round"/>
<path d="M40.9985 4.28552L43.3822 9.36349L48.7128 10.1828L44.8556 14.1332L45.7659 19.7141L40.9985 17.0778L36.231 19.7141L37.1413 14.1332L33.2842 10.1828L38.6148 9.36349L40.9985 4.28552Z" fill="#FFB832" stroke="#FFB832" stroke-width="1.5" stroke-linecap="round" stroke-linejoin="round"/>
<path d="M69.9985 4.28552L72.3822 9.36349L77.7128 10.1828L73.8556 14.1332L74.7659 19.7141L69.9985 17.0778L65.231 19.7141L66.1413 14.1332L62.2842 10.1828L67.6148 9.36349L69.9985 4.28552Z" fill="#FFB832" stroke="#FFB832" stroke-width="1.5" stroke-linecap="round" stroke-linejoin="round"/>
<path d="M98.9985 4.28552L101.382 9.36349L106.713 10.1828L102.856 14.1332L103.766 19.7141L98.9985 17.0778L94.231 19.7141L95.1413 14.1332L91.2842 10.1828L96.6148 9.36349L98.9985 4.28552Z" fill="#FFB832" stroke="#FFB832" stroke-width="1.5" stroke-linecap="round" stroke-linejoin="round"/>
<path d="M127.998 4.28552L130.382 9.36349L135.713 10.1828L131.856 14.1332L132.766 19.7141L127.998 17.0778L123.231 19.7141L124.141 14.1332L120.284 10.1828L125.615 9.36349L127.998 4.28552Z" fill="#FFB832" stroke="#FFB832" stroke-width="1.5" stroke-linecap="round" stroke-linejoin="round"/>
</svg>
