<svg width="30" height="30" viewBox="0 0 30 30" fill="none" xmlns="http://www.w3.org/2000/svg">
<circle cx="15" cy="15" r="14.5" stroke="white"/>
<path d="M22.3561 18.8367C22.3561 18.7744 22.2938 18.7744 22.2938 18.7122C22.0448 18.214 21.4844 17.5913 20.7371 16.9064C20.3635 16.5951 20.1767 16.346 20.0522 16.2215C19.8654 15.9724 19.8654 15.7856 19.9277 15.5365C19.99 15.3497 20.239 15.0384 20.6749 14.478C20.9239 14.1666 21.0485 13.9798 21.2353 13.793C22.1693 12.5477 22.6052 11.7382 22.4806 11.3646L22.4184 11.3024C22.3561 11.2401 22.2938 11.1778 22.1693 11.1778C22.0448 11.1156 21.858 11.1156 21.6712 11.1778H19.305C19.2427 11.1778 19.2427 11.1778 19.1182 11.1778C19.0559 11.1778 18.9937 11.1778 18.9937 11.1778H18.9314H18.8691L18.8069 11.2401C18.7446 11.3024 18.7446 11.3024 18.7446 11.3646C18.4955 12.0496 18.1842 12.61 17.8729 13.2326C17.6861 13.544 17.4993 13.8553 17.3125 14.1044C17.1257 14.3535 17.0011 14.5402 16.8766 14.6648C16.752 14.7893 16.6275 14.8516 16.5652 14.9761C16.503 15.0384 16.3784 15.1007 16.3784 15.0384C16.3162 15.0384 16.2539 15.0384 16.2539 14.9761C16.1916 14.9139 16.1294 14.8516 16.0671 14.7893C16.0048 14.727 16.0048 14.6025 15.9426 14.478C15.9426 14.3534 15.9426 14.2289 15.9426 14.1666C15.9426 14.1044 15.9426 13.9176 15.9426 13.793C15.9426 13.6062 15.9426 13.4817 15.9426 13.4194C15.9426 13.2326 15.9426 12.9836 15.9426 12.7345C15.9426 12.4854 15.9426 12.2986 15.9426 12.1741C15.9426 12.0496 15.9426 11.8628 15.9426 11.7382C15.9426 11.5514 15.9426 11.4269 15.9426 11.3646C15.9426 11.3024 15.8803 11.1778 15.8803 11.1156C15.818 11.0533 15.7558 10.991 15.6935 10.9288C15.6312 10.8665 15.5067 10.8665 15.4444 10.8042C15.1331 10.742 14.7595 10.6797 14.3236 10.6797C13.3274 10.6797 12.6424 10.742 12.3933 10.8665C12.2688 10.9288 12.1443 10.991 12.082 11.1156C11.9575 11.2401 11.9575 11.3024 12.0197 11.3024C12.3311 11.3646 12.5802 11.4892 12.7047 11.676L12.767 11.8005C12.8292 11.8628 12.8292 11.9873 12.8915 12.1741C12.9537 12.3609 12.9537 12.5477 12.9537 12.7968C12.9537 13.1704 12.9537 13.544 12.9537 13.793C12.9537 14.1044 12.8915 14.2912 12.8915 14.478C12.8915 14.6648 12.8292 14.7893 12.767 14.8516C12.7047 14.9761 12.7047 15.0384 12.6424 15.0384C12.6424 15.0384 12.6424 15.1007 12.5801 15.1007C12.5179 15.1007 12.4556 15.1629 12.3311 15.1629C12.2688 15.1629 12.1443 15.1007 12.082 15.0384C11.9575 14.9761 11.8329 14.8516 11.7707 14.7271C11.6461 14.6025 11.5216 14.4157 11.3971 14.1666C11.2725 13.9176 11.0857 13.6685 10.9612 13.2949L10.8367 13.0458C10.7744 12.9213 10.6499 12.6722 10.5253 12.3609C10.4008 12.0496 10.2763 11.8005 10.1517 11.4892C10.0895 11.3646 10.0272 11.3024 9.96493 11.2401H9.90266C9.90266 11.2401 9.84039 11.1778 9.77812 11.1778C9.71585 11.1778 9.65359 11.1156 9.59132 11.1156H7.3497C7.10063 11.1156 6.9761 11.1778 6.91383 11.2401L6.85156 11.3024C6.85156 11.3024 6.85156 11.3646 6.85156 11.4269C6.85156 11.4892 6.85157 11.5514 6.91383 11.676C7.22517 12.4232 7.59877 13.1704 7.97237 13.9176C8.34598 14.6025 8.71958 15.2252 8.96865 15.6611C9.27999 16.0969 9.52905 16.5328 9.84039 16.9064C10.1517 17.28 10.3385 17.5291 10.4008 17.6536C10.5253 17.7781 10.5876 17.8404 10.6499 17.9027L10.8367 18.0895C10.9612 18.214 11.148 18.4008 11.3971 18.5876C11.6461 18.7744 11.9575 18.9612 12.2688 19.148C12.5801 19.3348 12.9538 19.4594 13.3274 19.5839C13.7632 19.7084 14.1368 19.7707 14.5104 19.7084H15.4444C15.6312 19.7084 15.7558 19.6462 15.8803 19.5216L15.9426 19.4594C15.9426 19.3971 16.0048 19.3971 16.0048 19.3348C16.0048 19.2726 16.0048 19.2103 16.0048 19.0858C16.0048 18.8367 16.0048 18.6499 16.0671 18.4631C16.1294 18.2763 16.1294 18.1518 16.1917 18.0272C16.2539 17.9027 16.3162 17.8404 16.3784 17.7781C16.4407 17.7159 16.503 17.6536 16.503 17.6536H16.5652C16.6898 17.5913 16.8766 17.6536 17.0011 17.7781C17.1879 17.9027 17.3747 18.0895 17.4992 18.2763C17.6238 18.4631 17.8106 18.6499 18.0597 18.899C18.3087 19.148 18.4955 19.3348 18.6201 19.3971L18.8069 19.5216C18.9314 19.5839 19.0559 19.6462 19.2427 19.7084C19.4295 19.7707 19.5541 19.7707 19.6786 19.7707L21.7957 19.7084C21.9825 19.7084 22.1693 19.6462 22.2938 19.5839C22.4184 19.5216 22.4806 19.4594 22.4806 19.3348C22.4806 19.2726 22.4806 19.148 22.4806 19.0858C22.3561 18.9612 22.3561 18.899 22.3561 18.8367Z" fill="white"/>
</svg>
