<svg width="54" height="302" viewBox="0 0 54 302" fill="none" xmlns="http://www.w3.org/2000/svg">
<path d="M53.7207 62.3988H45.245V60.8373H53.7207V62.3988Z" fill="#4E4B66"/>
<path d="M53.7207 42.7911H45.245V41.2296H53.7207V42.7911Z" fill="#4E4B66"/>
<path d="M53.7207 70.2654H45.245V68.7038H53.7207V70.2654Z" fill="#4E4B66"/>
<path d="M53.7207 76.1359H45.245V74.5743H53.7207V76.1359Z" fill="#4E4B66"/>
<path d="M53.7207 82.0061H45.245V80.4446H53.7207V82.0061Z" fill="#4E4B66"/>
<path d="M53.7207 97.887H45.245V96.3254H53.7207V97.887Z" fill="#4E4B66"/>
<path d="M53.7207 103.757H45.245V102.196H53.7207V103.757Z" fill="#4E4B66"/>
<path d="M53.7207 114.633H45.245V113.071H53.7207V114.633Z" fill="#4E4B66"/>
<path d="M53.7207 120.503H45.245V118.942H53.7207V120.503Z" fill="#4E4B66"/>
<path d="M53.7207 126.374H45.245V124.812H53.7207V126.374Z" fill="#4E4B66"/>
<path d="M53.7207 1.5675L45.245 1.5675V0.00595093L53.7207 0.00595093V1.5675Z" fill="#4E4B66"/>
<path d="M53.7207 7.43774L45.245 7.43774V5.87621L53.7207 5.87621V7.43774Z" fill="#4E4B66"/>
<path d="M53.7207 18.3135H45.245V16.7519H53.7207V18.3135Z" fill="#4E4B66"/>
<path d="M53.7207 24.1841H45.245V22.6225H53.7207V24.1841Z" fill="#4E4B66"/>
<path d="M53.7207 30.0542H45.245V28.4926H53.7207V30.0542Z" fill="#4E4B66"/>
<path d="M53.7207 143.253H45.245V141.691H53.7207V143.253Z" fill="#4E4B66"/>
<path d="M53.7207 149.123H45.245V147.562H53.7207V149.123Z" fill="#4E4B66"/>
<path d="M53.7207 165.004H45.245V163.442H53.7207V165.004Z" fill="#4E4B66"/>
<path d="M53.7207 174.881H45.245V173.32H53.7207V174.881Z" fill="#4E4B66"/>
<path d="M53.7207 186.755H45.245V185.193H53.7207V186.755Z" fill="#4E4B66"/>
<path d="M53.7207 192.625H45.245V191.064H53.7207V192.625Z" fill="#4E4B66"/>
<path d="M53.7207 198.496H45.245V196.934H53.7207V198.496Z" fill="#4E4B66"/>
<path d="M22.6837 233.381H31.1594V234.942H22.6837V233.381Z" fill="#4E4B66"/>
<path d="M22.6837 252.998H31.1594V254.559H22.6837V252.998Z" fill="#4E4B66"/>
<path d="M22.6837 211.561H31.1594V213.123H22.6837V211.561Z" fill="#4E4B66"/>
<path d="M22.6837 205.691H31.1594V207.253H22.6837V205.691Z" fill="#4E4B66"/>
<path d="M22.6837 199.822H31.1594V201.383H22.6837V199.822Z" fill="#4E4B66"/>
<path d="M22.6837 183.941H31.1594V185.503H22.6837V183.941Z" fill="#4E4B66"/>
<path d="M22.6837 178.072H31.1594V179.633H22.6837V178.072Z" fill="#4E4B66"/>
<path d="M22.6837 167.197H31.1594V168.758H22.6837V167.197Z" fill="#4E4B66"/>
<path d="M22.6837 147.385H31.1594V148.946H22.6837V147.385Z" fill="#4E4B66"/>
<path d="M22.6837 52.4371H31.1594V53.9987H22.6837V52.4371Z" fill="#4E4B66"/>
<path d="M22.6837 36.5568H31.1594V38.1183H22.6837V36.5568Z" fill="#4E4B66"/>
<path d="M22.6837 30.687H31.1594V32.2486H22.6837V30.687Z" fill="#4E4B66"/>
<path d="M22.6837 19.812H31.1594V21.3736H22.6837V19.812Z" fill="#4E4B66"/>
<path d="M22.6837 0H31.1594V1.56155H22.6837V0Z" fill="#4E4B66"/>
<path d="M22.6837 141.515H31.1594V143.076H22.6837V141.515Z" fill="#4E4B66"/>
<path d="M22.6837 294.211H31.1594V295.773H22.6837V294.211Z" fill="#4E4B66"/>
<path d="M22.6837 288.341H31.1594V289.903H22.6837V288.341Z" fill="#4E4B66"/>
<path d="M22.6837 277.466H31.1594V279.028H22.6837V277.466Z" fill="#4E4B66"/>
<path d="M22.6837 271.597H31.1594V273.158H22.6837V271.597Z" fill="#4E4B66"/>
<path d="M22.6837 265.727H31.1594V267.289H22.6837V265.727Z" fill="#4E4B66"/>
<path d="M22.6837 124.63H31.1594V126.192H22.6837V124.63Z" fill="#4E4B66"/>
<path d="M22.6837 118.761H31.1594V120.322H22.6837V118.761Z" fill="#4E4B66"/>
<path d="M22.6837 102.881H31.1594V104.442H22.6837V102.881Z" fill="#4E4B66"/>
<path d="M22.6837 93.0093H31.1594V94.5708H22.6837V93.0093Z" fill="#4E4B66"/>
<path d="M22.6837 81.1306H31.1594V82.6922H22.6837V81.1306Z" fill="#4E4B66"/>
<path d="M22.6837 75.2609H31.1594V76.8224H22.6837V75.2609Z" fill="#4E4B66"/>
<path d="M22.6837 69.3909H31.1594V70.9524H22.6837V69.3909Z" fill="#4E4B66"/>
<path d="M8.59119 67.9763H0.11551L0.11551 66.4148H8.59119V67.9763Z" fill="#4E4B66"/>
<path d="M8.59119 62.2987H0.11551L0.11551 60.7372H8.59119V62.2987Z" fill="#4E4B66"/>
<path d="M8.59119 73.0543H0.11551L0.11551 71.4928H8.59119V73.0543Z" fill="#4E4B66"/>
<path d="M8.59119 92.869H0.11551L0.11551 91.3074H8.59119V92.869Z" fill="#4E4B66"/>
<path d="M8.59119 98.7391H0.11551L0.11551 97.1776H8.59119V98.7391Z" fill="#4E4B66"/>
<path d="M8.59119 114.62H0.11551L0.11551 113.059H8.59119V114.62Z" fill="#4E4B66"/>
<path d="M8.59119 120.49H0.11551L0.11551 118.929H8.59119V120.49Z" fill="#4E4B66"/>
<path d="M8.59119 131.366H0.11551L0.11551 129.804H8.59119V131.366Z" fill="#4E4B66"/>
<path d="M8.59119 137.236H0.11551L0.11551 135.675H8.59119V137.236Z" fill="#4E4B66"/>
<path d="M8.59119 151.473H0.11551L0.11551 149.912H8.59119V151.473Z" fill="#4E4B66"/>
<path d="M8.59119 1.5675L0.11551 1.5675L0.11551 0.00595093L8.59119 0.00595093V1.5675Z" fill="#4E4B66"/>
<path d="M8.59119 21.3821H0.11551L0.11551 19.8205H8.59119V21.3821Z" fill="#4E4B66"/>
<path d="M8.59119 32.2574H0.11551L0.11551 30.6959H8.59119V32.2574Z" fill="#4E4B66"/>
<path d="M8.59119 38.1278H0.11551L0.11551 36.5663H8.59119V38.1278Z" fill="#4E4B66"/>
<path d="M8.59119 49.576H0.11551L0.11551 48.0145H8.59119V49.576Z" fill="#4E4B66"/>
<path d="M8.59119 168.352H0.11551L0.11551 166.79H8.59119V168.352Z" fill="#4E4B66"/>
<path d="M8.59119 174.222H0.11551L0.11551 172.661H8.59119V174.222Z" fill="#4E4B66"/>
<path d="M8.59119 190.103H0.11551L0.11551 188.542H8.59119V190.103Z" fill="#4E4B66"/>
<path d="M8.59119 199.98H0.11551L0.11551 198.419H8.59119V199.98Z" fill="#4E4B66"/>
<path d="M8.59119 211.854H0.11551L0.11551 210.293H8.59119V211.854Z" fill="#4E4B66"/>
<path d="M8.59119 217.725H0.11551L0.11551 216.163H8.59119V217.725Z" fill="#4E4B66"/>
<path d="M8.59119 237.539H0.11551L0.11551 235.978H8.59119V237.539Z" fill="#4E4B66"/>
</svg>
