<svg width="54" height="215" viewBox="0 0 54 215" fill="none" xmlns="http://www.w3.org/2000/svg">
<path d="M8.90644 141.247H0.421875V142.81H8.90644V141.247Z" fill="#4E4B66"/>
<path d="M8.90644 160.882H0.421875V162.445H8.90644V160.882Z" fill="#4E4B66"/>
<path d="M8.90644 119.422H0.421875V120.985H8.90644V119.422Z" fill="#4E4B66"/>
<path d="M8.90644 113.534H0.421875V115.097H8.90644V113.534Z" fill="#4E4B66"/>
<path d="M8.90644 107.658H0.421875V109.221H8.90644V107.658Z" fill="#4E4B66"/>
<path d="M8.90644 91.763H0.421875V93.3259H8.90644V91.763Z" fill="#4E4B66"/>
<path d="M8.90644 85.8885H0.421875V87.4514H8.90644V85.8885Z" fill="#4E4B66"/>
<path d="M8.90644 75.0042H0.421875V76.5671H8.90644V75.0042Z" fill="#4E4B66"/>
<path d="M8.90644 55.1741H0.421875V56.737H8.90644V55.1741Z" fill="#4E4B66"/>
<path d="M8.90644 49.2984H0.421875V50.8613H8.90644V49.2984Z" fill="#4E4B66"/>
<path d="M8.90644 202.131H0.421875V203.694H8.90644V202.131Z" fill="#4E4B66"/>
<path d="M8.90644 196.257H0.421875V197.82H8.90644V196.257Z" fill="#4E4B66"/>
<path d="M8.90644 185.372H0.421875V186.935H8.90644V185.372Z" fill="#4E4B66"/>
<path d="M8.90644 179.498H0.421875V181.061H8.90644V179.498Z" fill="#4E4B66"/>
<path d="M8.90644 173.622H0.421875V175.185H8.90644V173.622Z" fill="#4E4B66"/>
<path d="M8.90644 32.3993H0.421875V33.9622H8.90644V32.3993Z" fill="#4E4B66"/>
<path d="M8.90644 26.5247H0.421875V28.0877H8.90644V26.5247Z" fill="#4E4B66"/>
<path d="M8.90644 10.6305H0.421875V12.1935H8.90644V10.6305Z" fill="#4E4B66"/>
<path d="M8.90644 0.75H0.421875V2.31294H8.90644V0.75Z" fill="#4E4B66"/>
<path d="M45.5906 2.32246L54.0752 2.32246V0.759529L45.5906 0.759529V2.32246Z" fill="#4E4B66"/>
<path d="M45.5906 8.19812L54.0752 8.19812V6.63518L45.5906 6.63518V8.19812Z" fill="#4E4B66"/>
<path d="M45.5906 14.0738L54.0752 14.0738V12.5108L45.5906 12.5108V14.0738Z" fill="#4E4B66"/>
<path d="M45.5906 29.9691H54.0752V28.4062H45.5906V29.9691Z" fill="#4E4B66"/>
<path d="M45.5906 35.8448H54.0752V34.2819H45.5906V35.8448Z" fill="#4E4B66"/>
<path d="M45.5906 46.7303H54.0752V45.1674H45.5906V46.7303Z" fill="#4E4B66"/>
<path d="M45.5906 66.5615H54.0752V64.9986H45.5906V66.5615Z" fill="#4E4B66"/>
<path d="M45.5906 161.593H54.0752V160.03H45.5906V161.593Z" fill="#4E4B66"/>
<path d="M45.5906 177.487H54.0752V175.924H45.5906V177.487Z" fill="#4E4B66"/>
<path d="M45.5906 183.364H54.0752V181.801H45.5906V183.364Z" fill="#4E4B66"/>
<path d="M45.5906 194.249H54.0752V192.686H45.5906V194.249Z" fill="#4E4B66"/>
<path d="M45.5906 214.081H54.0752V212.518H45.5906V214.081Z" fill="#4E4B66"/>
<path d="M45.5906 72.4372H54.0752V70.8743H45.5906V72.4372Z" fill="#4E4B66"/>
<path d="M45.5906 89.3317H54.0752V87.7688H45.5906V89.3317Z" fill="#4E4B66"/>
<path d="M45.5906 95.2074H54.0752V93.6445H45.5906V95.2074Z" fill="#4E4B66"/>
<path d="M45.5906 111.103H54.0752V109.54H45.5906V111.103Z" fill="#4E4B66"/>
<path d="M45.5906 120.974H54.0752V119.411H45.5906V120.974Z" fill="#4E4B66"/>
<path d="M45.5906 132.873H54.0752V131.31H45.5906V132.873Z" fill="#4E4B66"/>
<path d="M45.5906 138.749H54.0752V137.186H45.5906V138.749Z" fill="#4E4B66"/>
<path d="M45.5906 144.624H54.0752V143.061H45.5906V144.624Z" fill="#4E4B66"/>
<path d="M22.9961 2.32225L31.4807 2.32225V0.759315L22.9961 0.759315V2.32225Z" fill="#4E4B66"/>
<path d="M22.9961 8.19791L31.4807 8.19791V6.63497L22.9961 6.63497V8.19791Z" fill="#4E4B66"/>
<path d="M22.9961 24.0933H31.4807V22.5303H22.9961V24.0933Z" fill="#4E4B66"/>
<path d="M22.9961 29.9689H31.4807V28.406H22.9961V29.9689Z" fill="#4E4B66"/>
<path d="M22.9961 40.8533H31.4807V39.2903H22.9961V40.8533Z" fill="#4E4B66"/>
<path d="M22.9961 46.7301H31.4807V45.1671H22.9961V46.7301Z" fill="#4E4B66"/>
<path d="M22.9961 60.9789H31.4807V59.4159H22.9961V60.9789Z" fill="#4E4B66"/>
<path d="M22.9961 77.8734H31.4807V76.3104H22.9961V77.8734Z" fill="#4E4B66"/>
<path d="M22.9961 83.7491H31.4807V82.1861H22.9961V83.7491Z" fill="#4E4B66"/>
<path d="M22.9961 99.6444H31.4807V98.0815H22.9961V99.6444Z" fill="#4E4B66"/>
<path d="M22.9961 109.53H31.4807V107.967H22.9961V109.53Z" fill="#4E4B66"/>
<path d="M22.9961 121.414H31.4807V119.851H22.9961V121.414Z" fill="#4E4B66"/>
<path d="M22.9961 127.291H31.4807V125.728H22.9961V127.291Z" fill="#4E4B66"/>
<path d="M22.9961 147.123H31.4807V145.561H22.9961V147.123Z" fill="#4E4B66"/>
</svg>
